:FULLY-SPECIFIED
:FORCE-ALL-JOINTS-BE-3DOF
:DEGREES
1223
root -0.86417 14.7925 -18.326 10.2706 15.1114 -0.086196
lfemur -2.57687 -1.65404 -8.83622
ltibia 64.4995 -0 0
lfoot 5.29958 -1.04214 -0.68226
ltoes -29.274 0 0
rfemur -52.1981 -8.19022 24.4132
rtibia 73.8103 -0 0
rfoot -21.0634 -22.1513 0.182809
rtoes -5.46629 0 0
lowerback 12.2601 1.34301 -1.97337
upperback -3.59835 1.49696 0.106057
thorax -10.868 0.8471 0.902414
lowerneck -1.382 -8.06187 -9.40915
upperneck 0.590622 -10.7666 10.04
head 1.47702 -5.33835 4.22643
lclavicle 0 0 0
lhumerus -54.3258 -34.7651 118.912
lradius 85.1592 -0 0
lwrist 7.19998 0 0
lhand -29.1238 25.9061 0.175027
lfingers 0 0 0
lthumb -2.47148 55.823 0.165184
rclavicle 0 0 0
rhumerus 65.0484 6.23096 -26.4383
rradius 94.0217 -0 0
rwrist -14.9117 0 0
rhand -28.5292 -34.5657 -0.0204524
rfingers 0 0 0
rthumb -1.89658 -64.5206 -0.0214085
1224
root -0.872394 14.7981 -18.2954 10.4357 14.7731 -0.224636
lfemur -2.8442 -1.76589 -8.84058
ltibia 65.0506 -0 0
lfoot 5.80814 -1.71057 -0.541354
ltoes -29.3223 0 0
rfemur -52.1203 -7.94923 24.7418
rtibia 73.9125 -0 0
rfoot -21.2555 -22.6364 0.145131
rtoes -5.38284 0 0
lowerback 12.1863 1.31032 -1.81014
upperback -3.64369 1.48199 0.128581
thorax -10.869 0.83135 0.839934
lowerneck -1.41266 -7.96531 -9.3323
upperneck 0.533664 -10.6306 9.98832
head 1.44169 -5.26985 4.2088
lclavicle 0 0 0
lhumerus -53.988 -35.1699 119.194
lradius 84.7434 -0 0
lwrist 5.94317 0 0
lhand -29.4392 25.6219 0.138967
lfingers 0 0 0
lthumb -2.77598 55.545 0.131154
rclavicle 0 0 0
rhumerus 65.1082 6.54153 -26.3763
rradius 94.0912 -0 0
rwrist -15.4067 0 0
rhand -28.3468 -34.6236 -0.0162415
rfingers 0 0 0
rthumb -1.72049 -64.5833 -0.0170008
1225
root -0.879678 14.8031 -18.2685 10.583 14.4727 -0.348432
lfemur -3.08198 -1.86539 -8.84402
ltibia 65.5408 -0 0
lfoot 6.25904 -2.30399 -0.411058
ltoes -29.3652 0 0
rfemur -52.0499 -7.73527 25.0342
rtibia 74.0034 -0 0
rfoot -21.4261 -23.0677 0.110254
rtoes -5.30863 0 0
lowerback 12.1205 1.28143 -1.66493
upperback -3.68403 1.4687 0.148625
thorax -10.8698 0.817341 0.784364
lowerneck -1.43982 -7.8794 -9.264
upperneck 0.482921 -10.5097 9.94223
head 1.41024 -5.20893 4.19308
lclavicle 0 0 0
lhumerus -53.6883 -35.5311 119.444
lradius 84.3736 -0 0
lwrist 4.82536 0 0
lhand -29.7195 25.3693 0.105582
lfingers 0 0 0
lthumb -3.04667 55.298 0.0996472
rclavicle 0 0 0
rhumerus 65.1618 6.8177 -26.3208
rradius 94.153 -0 0
rwrist -15.8469 0 0
rhand -28.1845 -34.675 -0.0123416
rfingers 0 0 0
rthumb -1.56388 -64.6391 -0.0129186
1226
root -0.885973 14.8074 -18.2455 10.7112 14.2122 -0.456371
lfemur -3.28832 -1.95175 -8.84667
ltibia 65.9662 -0 0
lfoot 6.6492 -2.8181 -0.294214
ltoes -29.4025 0 0
rfemur -51.9879 -7.54989 25.2881
rtibia 74.0822 -0 0
rfoot -21.574 -23.4419 0.0789488
rtoes -5.24423 0 0
lowerback 12.0634 1.25649 -1.53889
upperback -3.71903 1.45717 0.166026
thorax -10.8706 0.805184 0.736142
lowerneck -1.46329 -7.80482 -9.20479
upperneck 0.438823 -10.4048 9.90216
head 1.38295 -5.15607 4.17942
lclavicle 0 0 0
lhumerus -53.4287 -35.8453 119.659
lradius 84.0527 -0 0
lwrist 3.85535 0 0
lhand -29.9626 25.1502 0.0756101
lfingers 0 0 0
lthumb -3.28146 55.0837 0.0713607
rclavicle 0 0 0
rhumerus 65.2085 7.05732 -26.2725
rradius 94.2066 -0 0
rwrist -16.2289 0 0
rhand -28.0438 -34.7196 -0.00883939
rfingers 0 0 0
rthumb -1.42798 -64.6875 -0.00925266
1227
root -0.891232 14.8111 -18.2263 10.819 13.9939 -0.54725
lfemur -3.46135 -2.02417 -8.84865
ltibia 66.3229 -0 0
lfoot 6.97555 -3.24858 -0.193541
ltoes -29.4338 0 0
rfemur -51.9354 -7.39465 25.501
rtibia 74.1483 -0 0
rfoot -21.6978 -23.7556 0.0519541
rtoes -5.19022 0 0
lowerback 12.0154 1.23567 -1.43318
upperback -3.74838 1.44751 0.180622
thorax -10.8712 0.794989 0.695707
lowerneck -1.48291 -7.74226 -9.15516
upperneck 0.401799 -10.3169 9.86851
head 1.36005 -5.11175 4.16794
lclavicle 0 0 0
lhumerus -53.2113 -36.1095 119.839
lradius 83.7836 -0 0
lwrist 3.04195 0 0
lhand -30.1665 24.9666 0.0497609
lfingers 0 0 0
lthumb -3.47825 54.9041 0.0469646
rclavicle 0 0 0
rhumerus 65.2479 7.25822 -26.2318
rradius 94.2516 -0 0
rwrist -16.5493 0 0
rhand -27.9257 -34.757 -0.00581812
rfingers 0 0 0
rthumb -1.31402 -64.7281 -0.00609014
1228
root -0.895406 14.8139 -18.2112 10.9051 13.8201 -0.619888
lfemur -3.5992 -2.08186 -8.85007
ltibia 66.6071 -0 0
lfoot 7.23498 -3.59109 -0.11159
ltoes -29.4586 0 0
rfemur -51.8931 -7.27113 25.6707
rtibia 74.201 -0 0
rfoot -21.7963 -24.0055 0.0299645
rtoes -5.1472 0 0
lowerback 11.9772 1.21915 -1.34896
upperback -3.77177 1.43983 0.192254
thorax -10.8717 0.786867 0.663494
lowerneck -1.4985 -7.69241 -9.11565
upperneck 0.372274 -10.2469 9.84166
head 1.34181 -5.07645 4.15878
lclavicle 0 0 0
lhumerus -53.0384 -36.3203 119.982
lradius 83.5692 -0 0
lwrist 2.39397 0 0
lhand -30.3288 24.8204 0.0287013
lfingers 0 0 0
lthumb -3.63497 54.7611 0.0270887
rclavicle 0 0 0
rhumerus 65.2793 7.41824 -26.1992
rradius 94.2874 -0 0
rwrist -16.8045 0 0
rhand -27.8317 -34.7868 -0.00335613
rfingers 0 0 0
rthumb -1.22325 -64.7604 -0.00351305
1229
root -0.898448 14.816 -18.2003 10.9681 13.6932 -0.673131
lfemur -3.69998 -2.12405 -8.85102
ltibia 66.8149 -0 0
lfoot 7.42435 -3.84127 -0.0506945
ltoes -29.4768 0 0
rfemur -51.8619 -7.18089 25.7947
rtibia 74.2395 -0 0
rfoot -21.8683 -24.1881 0.0136157
rtoes -5.11575 0 0
lowerback 11.9492 1.20711 -1.28738
upperback -3.78887 1.43421 0.20076
thorax -10.872 0.780928 0.639943
lowerneck -1.50988 -7.65596 -9.08677
upperneck 0.350671 -10.1957 9.82202
head 1.32846 -5.05064 4.15208
lclavicle 0 0 0
lhumerus -52.912 -36.4746 120.086
lradius 83.4125 -0 0
lwrist 1.92022 0 0
lhand -30.4474 24.7135 0.0130423
lfingers 0 0 0
lthumb -3.74952 54.6566 0.0123096
rclavicle 0 0 0
rhumerus 65.3024 7.53522 -26.1754
rradius 94.3136 -0 0
rwrist -16.9911 0 0
rhand -27.7629 -34.8086 -0.00152519
rfingers 0 0 0
rthumb -1.15688 -64.784 -0.0015965
1230
root -0.900308 14.8173 -18.1936 11.0068 13.6153 -0.70586
lfemur -3.76183 -2.14994 -8.85157
ltibia 66.9423 -0 0
lfoot 7.54041 -3.99469 -0.0129175
ltoes -29.488 0 0
rfemur -51.8427 -7.12555 25.8709
rtibia 74.2632 -0 0
rfoot -21.9124 -24.3002 0.00346992
rtoes -5.09644 0 0
lowerback 11.932 1.19974 -1.24959
upperback -3.79936 1.43076 0.205981
thorax -10.8722 0.777284 0.625492
lowerneck -1.51685 -7.63359 -9.06905
upperneck 0.337408 -10.1643 9.80995
head 1.32027 -5.03481 4.14797
lclavicle 0 0 0
lhumerus -52.8345 -36.5694 120.15
lradius 83.3163 -0 0
lwrist 1.62951 0 0
lhand -30.5202 24.648 0.00332389
lfingers 0 0 0
lthumb -3.81979 54.5925 0.00313716
rclavicle 0 0 0
rhumerus 65.3166 7.607 -26.1607
rradius 94.3296 -0 0
rwrist -17.1056 0 0
rhand -27.7207 -34.822 -0.000388719
rfingers 0 0 0
rthumb -1.11615 -64.7985 -0.000406894
